<svg width="40" height="40" viewBox="0 0 18 18" fill="none" xmlns="http://www.w3.org/2000/svg">
<path d="M9 13.5L4.5 9H7.2V5.4H10.8V9H13.5L9 13.5ZM9 0C10.1819 0 11.3522 0.232792 12.4442 0.685084C13.5361 1.13738 14.5282 1.80031 15.364 2.63604C16.1997 3.47177 16.8626 4.46392 17.3149 5.55585C17.7672 6.64778 18 7.8181 18 9C18 11.3869 17.0518 13.6761 15.364 15.364C13.6761 17.0518 11.3869 18 9 18C7.8181 18 6.64778 17.7672 5.55585 17.3149C4.46392 16.8626 3.47177 16.1997 2.63604 15.364C0.948211 13.6761 0 11.3869 0 9C0 6.61305 0.948211 4.32387 2.63604 2.63604C4.32387 0.948212 6.61305 0 9 0ZM9 1.8C7.09044 1.8 5.25909 2.55857 3.90883 3.90883C2.55857 5.25909 1.8 7.09044 1.8 9C1.8 10.9096 2.55857 12.7409 3.90883 14.0912C5.25909 15.4414 7.09044 16.2 9 16.2C10.9096 16.2 12.7409 15.4414 14.0912 14.0912C15.4414 12.7409 16.2 10.9096 16.2 9C16.2 7.09044 15.4414 5.25909 14.0912 3.90883C12.7409 2.55857 10.9096 1.8 9 1.8Z" fill="#F2EFE8"/>
</svg>
